<?xml version="1.0" encoding="UTF-8" standalone="no"?>
<!-- Created with Inkscape (http://www.inkscape.org/) -->

<svg
   width="256"
   height="256"
   viewBox="0 0 256 256"
   version="1.1"
   id="svg1"
   inkscape:version="1.4.2 (ebf0e940d0, 2025-05-08)"
   sodipodi:docname="glow.svg"
   xmlns:inkscape="http://www.inkscape.org/namespaces/inkscape"
   xmlns:sodipodi="http://sodipodi.sourceforge.net/DTD/sodipodi-0.dtd"
   xmlns="http://www.w3.org/2000/svg"
   xmlns:svg="http://www.w3.org/2000/svg">
  <sodipodi:namedview
     id="namedview1"
     pagecolor="#ffffff"
     bordercolor="#000000"
     borderopacity="0.25"
     inkscape:showpageshadow="2"
     inkscape:pageopacity="0.0"
     inkscape:pagecheckerboard="0"
     inkscape:deskcolor="#d1d1d1"
     inkscape:document-units="px"
     inkscape:export-bgcolor="#ffffff00"
     inkscape:zoom="2.3944444"
     inkscape:cx="-10.649652"
     inkscape:cy="141.57773"
     inkscape:window-width="2120"
     inkscape:window-height="1440"
     inkscape:window-x="1500"
     inkscape:window-y="0"
     inkscape:window-maximized="1"
     inkscape:current-layer="layer1" />
  <defs
     id="defs1">
    <filter
       inkscape:menu-tooltip="3D warped, iridescent pearly shell texture"
       inkscape:menu="Materials"
       inkscape:label="3D Mother of Pearl"
       width="1.7634613"
       x="-0.37186391"
       height="1.9439376"
       y="-0.46164126"
       style="color-interpolation-filters:sRGB"
       id="filter40">
      <feGaussianBlur
         result="result8"
         stdDeviation="3"
         id="feGaussianBlur37" />
      <feTurbulence
         baseFrequency="0.03 0.03"
         numOctaves="8"
         type="fractalNoise"
         result="result7"
         seed="77"
         id="feTurbulence37" />
      <feColorMatrix
         values="1 0 0 0 0 0 1 0 0 0 0 0 1 0 0 0 0 0 1.6 -0.6 "
         result="result5"
         id="feColorMatrix37" />
      <feComposite
         in2="result8"
         operator="in"
         in="result7"
         result="result6"
         id="feComposite37" />
      <feDisplacementMap
         in2="result6"
         result="result4"
         scale="60"
         yChannelSelector="A"
         xChannelSelector="A"
         in="result5"
         id="feDisplacementMap37" />
      <feConvolveMatrix
         order="3 3"
         kernelMatrix="2 0 0 0 4 0 0 0 -2 "
         targetX="2"
         targetY="2"
         divisor="2"
         result="result9"
         id="feConvolveMatrix37" />
      <feComposite
         in2="SourceGraphic"
         operator="atop"
         in="result9"
         result="result10"
         id="feComposite38" />
      <feBlend
         in2="result10"
         mode="darken"
         result="fbSourceGraphic"
         id="feBlend38" />
      <feGaussianBlur
         result="result0"
         in="fbSourceGraphic"
         stdDeviation="5"
         id="feGaussianBlur38" />
      <feSpecularLighting
         specularExponent="25"
         specularConstant="1"
         surfaceScale="5"
         lighting-color="#f2d76c"
         result="result1"
         in="result0"
         id="feSpecularLighting38">
        <feDistantLight
           azimuth="235"
           elevation="60"
           id="feDistantLight38" />
      </feSpecularLighting>
      <feComposite
         operator="in"
         result="result2"
         in="result1"
         in2="fbSourceGraphic"
         id="feComposite39" />
      <feComposite
         k3="1"
         k2="1"
         operator="arithmetic"
         result="fbSourceGraphic"
         in="fbSourceGraphic"
         in2="result2"
         id="feComposite40"
         k1="0"
         k4="0" />
      <feColorMatrix
         result="fbSourceGraphicAlpha"
         in="fbSourceGraphic"
         values="0 0 0 -1 0 0 0 0 -1 0 0 0 0 -1 0 0 0 0 1 0"
         id="feColorMatrix46" />
      <feGaussianBlur
         id="feGaussianBlur46"
         stdDeviation="2"
         result="result1"
         in="fbSourceGraphic" />
      <feOffset
         id="feOffset46"
         dx="2"
         dy="2" />
      <feConvolveMatrix
         id="feConvolveMatrix46"
         result="result3"
         order="3 3"
         kernelMatrix="2 0 0 0 8 0 4 0 -4 "
         divisor="2"
         bias="0"
         targetX="0" />
      <feComposite
         id="feComposite46"
         operator="xor"
         result="result2"
         in="result3"
         in2="result1" />
      <feColorMatrix
         id="feColorMatrix47"
         values="91.7"
         result="fbSourceGraphic"
         type="hueRotate" />
      <feBlend
         id="feBlend47"
         mode="multiply"
         result="result4"
         in="fbSourceGraphic"
         in2="result3" />
      <feComposite
         id="feComposite47"
         operator="in"
         result="fbSourceGraphic"
         in="fbSourceGraphic"
         in2="result4" />
      <feColorMatrix
         result="fbSourceGraphicAlpha"
         in="fbSourceGraphic"
         values="0 0 0 -1 0 0 0 0 -1 0 0 0 0 -1 0 0 0 0 1 0"
         id="feColorMatrix57" />
      <feGaussianBlur
         id="feGaussianBlur57"
         result="result8"
         stdDeviation="3"
         in="fbSourceGraphic" />
      <feTurbulence
         id="feTurbulence57"
         baseFrequency="0.03 0.03"
         numOctaves="8"
         type="fractalNoise"
         result="result7"
         seed="77" />
      <feColorMatrix
         id="feColorMatrix58"
         values="1 0 0 0 0 0 1 0 0 0 0 0 1 0 0 0 0 0 1.6 -0.6 "
         result="result5" />
      <feComposite
         id="feComposite58"
         in2="result8"
         operator="in"
         in="result7"
         result="result6" />
      <feDisplacementMap
         id="feDisplacementMap58"
         in2="result6"
         result="result4"
         scale="60"
         yChannelSelector="A"
         xChannelSelector="A"
         in="result5" />
      <feConvolveMatrix
         id="feConvolveMatrix58"
         order="3 3"
         kernelMatrix="2 0 0 0 4 0 0 0 -2 "
         targetX="2"
         targetY="2"
         divisor="2"
         result="result9" />
      <feComposite
         id="feComposite59"
         in2="fbSourceGraphic"
         operator="atop"
         in="result9"
         result="result10" />
      <feBlend
         id="feBlend59"
         in2="result10"
         mode="darken"
         result="fbSourceGraphic" />
      <feGaussianBlur
         id="feGaussianBlur59"
         result="result0"
         in="fbSourceGraphic"
         stdDeviation="5" />
      <feSpecularLighting
         id="feSpecularLighting59"
         specularExponent="25"
         specularConstant="1"
         surfaceScale="5"
         lighting-color="#f2d76c"
         result="result1"
         in="result0">
        <feDistantLight
           id="feDistantLight59"
           azimuth="235"
           elevation="60" />
      </feSpecularLighting>
      <feComposite
         id="feComposite60"
         operator="in"
         result="result2"
         in="result1"
         in2="fbSourceGraphic" />
      <feComposite
         id="feComposite61"
         k3="1"
         k2="1"
         operator="arithmetic"
         result="result4"
         in="fbSourceGraphic"
         in2="result2"
         k1="0"
         k4="0" />
    </filter>
  </defs>
  <g
     inkscape:label="Layer 1"
     inkscape:groupmode="layer"
     id="layer1"
     transform="translate(60.999996,54.000003)">
    <g
       id="g1"
       transform="translate(-31.023862,-13.455931)">
      <path
         style="font-style:italic;font-weight:bold;font-size:127.742px;font-family:'IosevkaTerm Nerd Font Propo';-inkscape-font-specification:'IosevkaTerm Nerd Font Propo Bold Italic';text-align:center;text-anchor:middle;fill:#252525;stroke:#713320;stroke-width:3;stroke-linecap:round;filter:url(#filter40)"
         d="m 14.231272,85.997102 q -3.321292,0 -6.259358,-1.149678 -2.810324,-1.27742 -4.7264539,-3.576776 -1.788388,-2.427098 -2.68258194,-5.492905 -0.76645198,-3.065808 -1.14967797,-6.131616 -0.255484,-3.19355 0,-6.514842 0.25548399,-3.321292 0.76645198,-6.514842 L 2.7344921,41.287403 q 0.510968,-2.938065 1.27742,-5.748389 0.766452,-2.810324 2.0438719,-5.492906 1.405162,-2.682582 3.3212919,-4.981938 2.0438721,-2.427098 4.4709701,-4.215486 2.55484,-1.788388 5.365164,-2.55484 2.938066,-0.766452 5.74839,-0.766452 2.938065,0 5.620647,0.894194 2.682582,0.766452 4.598712,2.682582 1.91613,1.788388 3.065808,4.215486 1.27742,2.427098 1.660646,5.10968 L 46.422255,-8.9152013 H 60.857101 L 47.699675,71.179031 q -0.127742,0.510968 -0.127742,1.021936 0.127742,0.510968 0.383226,0.894194 0.383226,0.383226 0.766452,0.510968 0.510968,0.127742 1.021936,0.127742 h 2.171614 v 12.263231 h -4.215486 q -2.682582,0 -5.365164,-0.510968 -2.55484,-0.510968 -4.726454,-1.91613 -2.043872,-1.405162 -3.321292,-3.704518 -1.27742,-2.299355 -1.27742,-4.981937 -1.405162,2.427098 -3.576776,4.598711 -2.043872,2.171614 -4.598711,3.704518 -2.427098,1.405162 -5.237422,2.043872 -2.682582,0.766452 -5.365164,0.766452 z m 7.792262,-12.263231 q 2.299356,0 4.598711,-0.766452 2.299356,-0.894194 4.087744,-2.55484 1.788388,-1.788388 2.682582,-3.960002 1.021936,-2.299356 1.405162,-4.47097 l 2.427098,-15.32904 q 0.383226,-1.91613 0.510968,-3.83226 0.255484,-1.91613 0,-3.704518 -0.255484,-1.788387 -0.766452,-3.449033 -0.510968,-1.788388 -1.660646,-3.065808 -1.021936,-1.405162 -2.810324,-2.043872 -1.660646,-0.766452 -3.449034,-0.766452 -2.427098,0 -4.726453,1.149678 -2.299356,1.149678 -3.960002,3.19355 -1.532904,2.043872 -2.299356,4.470969 -0.766452,2.299356 -1.149678,4.598712 l -2.55484,15.32904 q -0.255484,1.788388 -0.510968,3.576776 -0.127742,1.660646 0,3.321292 0.255484,1.660646 0.766452,3.19355 0.510968,1.532904 1.532904,2.810324 1.149678,1.149678 2.682582,1.788388 1.532904,0.510968 3.19355,0.510968 z m 75.623262,12.263231 q -3.19355,0 -6.131616,-0.63871 -2.938066,-0.510968 -5.365164,-2.043872 -2.427098,-1.532904 -4.215486,-3.83226 -1.660646,-2.299355 -2.55484,-5.109679 -0.766452,-2.938066 -0.766452,-6.003874 0,-3.065808 0.510968,-6.131616 L 84.361628,30.81256 H 70.054524 V 18.549328 h 30.785826 l -7.536782,45.731635 q -0.255484,1.532904 -0.383226,3.19355 -0.127742,1.532904 0.383226,2.938066 0.510968,1.405162 1.532904,2.427098 1.149678,0.894194 2.810324,0.894194 1.660646,0 3.321294,-0.766452 1.78839,-0.766452 2.93806,-2.043872 1.27742,-1.405162 2.04388,-3.065808 0.76645,-1.660646 1.14967,-3.321292 l 12.39098,2.55484 q -1.02194,3.704518 -2.93807,7.281294 -1.78839,3.449034 -4.72645,6.259357 -2.93807,2.682582 -6.77033,4.087744 -3.70452,1.27742 -7.409034,1.27742 z M 97.008086,9.6073882 q -2.427098,0 -4.598712,-0.8941939 -2.171614,-0.894194 -3.704518,-2.682582 -1.405162,-1.7883879 -1.788388,-4.2154859 -0.255484,-2.42709791 0.127742,-4.8541959 0.255484,-1.7883879 1.149678,-3.3212919 0.894194,-1.5329039 2.299356,-2.5548399 1.532904,-1.1496777 3.19355,-1.5329037 1.788388,-0.383226 3.449034,-0.383226 2.427098,0 4.598712,0.8941937 2.29936,0.894194 3.70452,2.682582 1.40516,1.7883879 1.78839,4.2154858 0.38322,2.42709799 -0.12775,4.8541959 -0.25548,1.788388 -1.14967,3.3212919 -0.8942,1.532904 -2.4271,2.682582 -1.40516,1.0219359 -3.19355,1.4051619 -1.660648,0.383226 -3.321294,0.383226 z"
         id="text1"
         transform="matrix(1.503024,0,0,1.503024,7.25915,29.46492)"
         aria-label="di" />
      <path
         d="m 29.771699,159.45972 q -4.992,0 -9.408,-1.728 -4.224,-1.92 -7.104,-5.376 -2.688,-3.648 -4.0319996,-8.256 -1.152,-4.608 -1.728,-9.216 -0.384,-4.8 0,-9.792 0.384,-4.992 1.152,-9.792 L 12.491699,92.259721 q 0.768,-4.416 1.92,-8.64 1.152,-4.224 3.072,-8.256 2.112,-4.032 4.992,-7.488 3.072,-3.648 6.72,-6.336 3.84,-2.688 8.064,-3.84 4.416,-1.152 8.64,-1.152 4.416,0 8.448,1.344 4.032,1.152 6.912,4.032 2.88,2.688 4.608,6.336 1.92,3.648 2.496,7.68 l 9.792,-59.136 h 21.696 l -19.776,120.383999 q -0.192,0.768 -0.192,1.536 0.192,0.768 0.576,1.344 0.576,0.576 1.152,0.768 0.768,0.192 1.536,0.192 h 3.264 v 18.432 h -6.336 q -4.032,0 -8.064,-0.768 -3.84,-0.768 -7.104,-2.88 -3.072,-2.112 -4.992,-5.568 -1.92,-3.456 -1.92,-7.488 -2.112,3.648 -5.376,6.912 -3.072,3.264 -6.912,5.568 -3.648,2.112 -7.872,3.072 -4.032,1.152 -8.064,1.152 z m 11.712,-18.432 q 3.456,0 6.912,-1.152 3.456,-1.344 6.144,-3.84 2.688,-2.688 4.032,-5.952 1.536,-3.456 2.112,-6.72 l 3.648,-23.04 q 0.576,-2.879999 0.768,-5.759999 0.384,-2.88 0,-5.568 -0.384,-2.688 -1.152,-5.184 -0.768,-2.688 -2.496,-4.608 -1.536,-2.112 -4.224,-3.072 -2.496,-1.152 -5.184,-1.152 -3.648,0 -7.104,1.728 -3.456,1.728 -5.952,4.8 -2.304,3.072 -3.456,6.72 -1.152,3.456 -1.728,6.912 l -3.84,23.039999 q -0.384,2.688 -0.768,5.376 -0.192,2.496 0,4.992 0.384,2.496 1.152,4.8 0.768,2.304 2.304,4.224 1.728,1.728 4.032,2.688 2.304,0.768 4.8,0.768 z m 113.664001,18.432 q -4.8,0 -9.216,-0.96 -4.416,-0.768 -8.064,-3.072 -3.648,-2.304 -6.336,-5.76 -2.496,-3.456 -3.84,-7.68 -1.152,-4.416 -1.152,-9.024 0,-4.608 0.768,-9.216 l 7.872,-47.231999 h -21.504 v -18.432 h 46.272 l -11.328,68.735999 q -0.384,2.304 -0.576,4.8 -0.192,2.304 0.576,4.416 0.768,2.112 2.304,3.648 1.728,1.344 4.224,1.344 2.496,0 4.992,-1.152 2.688,-1.152 4.416,-3.072 1.92,-2.112 3.072,-4.608 1.152,-2.496 1.728,-4.992 l 18.624,3.84 q -1.536,5.568 -4.416,10.944 -2.688,5.184 -7.104,9.408 -4.416,4.032 -10.176,6.144 -5.568,1.92 -11.136,1.92 z m -0.96,-114.815999 q -3.648,0 -6.912,-1.344 -3.264,-1.344 -5.568,-4.032 -2.112,-2.688 -2.688,-6.336 -0.384,-3.648 0.192,-7.296 0.384,-2.688 1.728,-4.992 1.344,-2.304 3.456,-3.84 2.304,-1.728 4.8,-2.304 2.688,-0.576 5.184,-0.576 3.648,0 6.912,1.344 3.456,1.344 5.568,4.032 2.112,2.688 2.688,6.336 0.576,3.648 -0.192,7.296 -0.384,2.688 -1.728,4.992 -1.344,2.304 -3.648,4.032 -2.112,1.536 -4.8,2.112 -2.496,0.576 -4.992,0.576 z"
         id="text61"
         style="font-style:italic;font-weight:bold;font-size:192px;font-family:'IosevkaTerm Nerd Font Propo';-inkscape-font-specification:'IosevkaTerm Nerd Font Propo Bold Italic';text-align:center;text-anchor:middle;fill:#161625;stroke-width:3;stroke-linecap:round"
         aria-label="di" />
    </g>
  </g>
</svg>
