<?xml version="1.0" encoding="UTF-8" standalone="no"?>
<!-- Created with Inkscape (http://www.inkscape.org/) -->

<svg
   width="256"
   height="256"
   viewBox="0 0 256 256"
   version="1.1"
   id="svg1"
   inkscape:version="1.4.2 (ebf0e940d0, 2025-05-08)"
   sodipodi:docname="pointilism.svg"
   xmlns:inkscape="http://www.inkscape.org/namespaces/inkscape"
   xmlns:sodipodi="http://sodipodi.sourceforge.net/DTD/sodipodi-0.dtd"
   xmlns="http://www.w3.org/2000/svg"
   xmlns:svg="http://www.w3.org/2000/svg">
  <sodipodi:namedview
     id="namedview1"
     pagecolor="#ffffff"
     bordercolor="#000000"
     borderopacity="0.25"
     inkscape:showpageshadow="2"
     inkscape:pageopacity="0.0"
     inkscape:pagecheckerboard="0"
     inkscape:deskcolor="#d1d1d1"
     inkscape:document-units="px"
     inkscape:export-bgcolor="#ffffff00"
     inkscape:zoom="2.3944444"
     inkscape:cx="51.577727"
     inkscape:cy="153.6891"
     inkscape:window-width="2076"
     inkscape:window-height="1360"
     inkscape:window-x="1520"
     inkscape:window-y="56"
     inkscape:window-maximized="1"
     inkscape:current-layer="g1" />
  <defs
     id="defs1">
    <filter
       inkscape:menu-tooltip="3D warped, iridescent pearly shell texture"
       inkscape:menu="Materials"
       inkscape:label="3D Mother of Pearl"
       width="1.7603663"
       x="-0.37186405"
       height="1.9439376"
       y="-0.46164126"
       style="color-interpolation-filters:sRGB"
       id="filter40">
      <feGaussianBlur
         result="result8"
         stdDeviation="3"
         id="feGaussianBlur37" />
      <feTurbulence
         baseFrequency="0.03 0.03"
         numOctaves="8"
         type="fractalNoise"
         result="result7"
         seed="77"
         id="feTurbulence37" />
      <feColorMatrix
         values="1 0 0 0 0 0 1 0 0 0 0 0 1 0 0 0 0 0 1.6 -0.6 "
         result="result5"
         id="feColorMatrix37" />
      <feComposite
         in2="result8"
         operator="in"
         in="result7"
         result="result6"
         id="feComposite37" />
      <feDisplacementMap
         in2="result6"
         result="result4"
         scale="60"
         yChannelSelector="A"
         xChannelSelector="A"
         in="result5"
         id="feDisplacementMap37" />
      <feConvolveMatrix
         order="3 3"
         kernelMatrix="2 0 0 0 4 0 0 0 -2 "
         targetX="2"
         targetY="2"
         divisor="2"
         result="result9"
         id="feConvolveMatrix37" />
      <feComposite
         in2="SourceGraphic"
         operator="atop"
         in="result9"
         result="result10"
         id="feComposite38" />
      <feBlend
         in2="result10"
         mode="darken"
         result="fbSourceGraphic"
         id="feBlend38" />
      <feGaussianBlur
         result="result0"
         in="fbSourceGraphic"
         stdDeviation="5"
         id="feGaussianBlur38" />
      <feSpecularLighting
         specularExponent="25"
         specularConstant="1"
         surfaceScale="5"
         lighting-color="#f2d76c"
         result="result1"
         in="result0"
         id="feSpecularLighting38">
        <feDistantLight
           azimuth="235"
           elevation="60"
           id="feDistantLight38" />
      </feSpecularLighting>
      <feComposite
         operator="in"
         result="result2"
         in="result1"
         in2="fbSourceGraphic"
         id="feComposite39" />
      <feComposite
         k3="1"
         k2="1"
         operator="arithmetic"
         result="fbSourceGraphic"
         in="fbSourceGraphic"
         in2="result2"
         id="feComposite40"
         k1="0"
         k4="0" />
      <feColorMatrix
         result="fbSourceGraphicAlpha"
         in="fbSourceGraphic"
         values="0 0 0 -1 0 0 0 0 -1 0 0 0 0 -1 0 0 0 0 1 0"
         id="feColorMatrix46" />
      <feGaussianBlur
         id="feGaussianBlur46"
         stdDeviation="2"
         result="result1"
         in="fbSourceGraphic" />
      <feOffset
         id="feOffset46"
         dx="2"
         dy="2" />
      <feConvolveMatrix
         id="feConvolveMatrix46"
         result="result3"
         order="3 3"
         kernelMatrix="2 0 0 0 8 0 4 0 -4 "
         divisor="2"
         bias="0"
         targetX="0" />
      <feComposite
         id="feComposite46"
         operator="xor"
         result="result2"
         in="result3"
         in2="result1" />
      <feColorMatrix
         id="feColorMatrix47"
         values="91.7"
         result="fbSourceGraphic"
         type="hueRotate" />
      <feBlend
         id="feBlend47"
         mode="multiply"
         result="result4"
         in="fbSourceGraphic"
         in2="result3" />
      <feComposite
         id="feComposite47"
         operator="in"
         result="fbSourceGraphic"
         in="fbSourceGraphic"
         in2="result4" />
      <feColorMatrix
         result="fbSourceGraphicAlpha"
         in="fbSourceGraphic"
         values="0 0 0 -1 0 0 0 0 -1 0 0 0 0 -1 0 0 0 0 1 0"
         id="feColorMatrix57" />
      <feGaussianBlur
         id="feGaussianBlur57"
         result="result8"
         stdDeviation="3"
         in="fbSourceGraphic" />
      <feTurbulence
         id="feTurbulence57"
         baseFrequency="0.03 0.03"
         numOctaves="8"
         type="fractalNoise"
         result="result7"
         seed="77" />
      <feColorMatrix
         id="feColorMatrix58"
         values="1 0 0 0 0 0 1 0 0 0 0 0 1 0 0 0 0 0 1.6 -0.6 "
         result="result5" />
      <feComposite
         id="feComposite58"
         in2="result8"
         operator="in"
         in="result7"
         result="result6" />
      <feDisplacementMap
         id="feDisplacementMap58"
         in2="result6"
         result="result4"
         scale="60"
         yChannelSelector="A"
         xChannelSelector="A"
         in="result5" />
      <feConvolveMatrix
         id="feConvolveMatrix58"
         order="3 3"
         kernelMatrix="2 0 0 0 4 0 0 0 -2 "
         targetX="2"
         targetY="2"
         divisor="2"
         result="result9" />
      <feComposite
         id="feComposite59"
         in2="fbSourceGraphic"
         operator="atop"
         in="result9"
         result="result10" />
      <feBlend
         id="feBlend59"
         in2="result10"
         mode="darken"
         result="fbSourceGraphic" />
      <feGaussianBlur
         id="feGaussianBlur59"
         result="result0"
         in="fbSourceGraphic"
         stdDeviation="5" />
      <feSpecularLighting
         id="feSpecularLighting59"
         specularExponent="25"
         specularConstant="1"
         surfaceScale="5"
         lighting-color="#f2d76c"
         result="result1"
         in="result0">
        <feDistantLight
           id="feDistantLight59"
           azimuth="235"
           elevation="60" />
      </feSpecularLighting>
      <feComposite
         id="feComposite60"
         operator="in"
         result="result2"
         in="result1"
         in2="fbSourceGraphic" />
      <feComposite
         id="feComposite61"
         k3="1"
         k2="1"
         operator="arithmetic"
         result="result4"
         in="fbSourceGraphic"
         in2="result2"
         k1="0"
         k4="0" />
    </filter>
    <filter
       inkscape:label="Pointillism"
       style="color-interpolation-filters:sRGB;"
       inkscape:menu-tooltip="Gives a turbulent pointillist HSL sensitive transparency"
       inkscape:menu="Scatter"
       height="1.0206135"
       width="1.0186638"
       y="-0.010306728"
       x="-0.0083022498"
       id="filter118">
      <feTurbulence
         seed="50"
         type="fractalNoise"
         baseFrequency="1"
         numOctaves="3"
         result="result1"
         id="feTurbulence114" />
      <feColorMatrix
         type="luminanceToAlpha"
         in="SourceGraphic"
         result="result0"
         id="feColorMatrix114" />
      <feColorMatrix
         result="result2"
         values="1 0 0 0 0 0 1 0 0 0 0 0 1 0 0 0 0 0 0.5 0 "
         id="feColorMatrix115" />
      <feComposite
         result="result3"
         operator="over"
         in="result1"
         in2="result2"
         id="feComposite115" />
      <feColorMatrix
         result="result91"
         values="1 0 0 0 0 0 1 0 0 0 0 0 1 0 0 0 0 0 5 -3.2"
         id="feColorMatrix116" />
      <feComposite
         in2="result91"
         operator="arithmetic"
         k1="1.5"
         result="result93"
         id="feComposite116" />
      <feComposite
         in2="result93"
         in="SourceGraphic"
         operator="out"
         result="result4"
         id="feComposite117" />
      <feComposite
         in2="result4"
         operator="arithmetic"
         k2="0.5"
         k1="1"
         id="feComposite118" />
      <feDisplacementMap
         scale="15"
         xChannelSelector="R"
         yChannelSelector="A"
         in2="result1"
         result="result92"
         id="feDisplacementMap118" />
    </filter>
    <filter
       inkscape:label="Pointillism"
       style="color-interpolation-filters:sRGB;"
       inkscape:menu-tooltip="Gives a turbulent pointillist HSL sensitive transparency"
       inkscape:menu="Scatter"
       height="1.0206135"
       width="1.0186638"
       y="-0.010306728"
       x="-0.0083022497"
       id="filter122">
      <feTurbulence
         seed="50"
         type="fractalNoise"
         baseFrequency="1"
         numOctaves="3"
         result="result1"
         id="feTurbulence118" />
      <feColorMatrix
         type="luminanceToAlpha"
         in="SourceGraphic"
         result="result0"
         id="feColorMatrix118" />
      <feColorMatrix
         result="result2"
         values="1 0 0 0 0 0 1 0 0 0 0 0 1 0 0 0 0 0 0.5 0 "
         id="feColorMatrix119" />
      <feComposite
         result="result3"
         operator="over"
         in="result1"
         in2="result2"
         id="feComposite119" />
      <feColorMatrix
         result="result91"
         values="1 0 0 0 0 0 1 0 0 0 0 0 1 0 0 0 0 0 5 -3.2"
         id="feColorMatrix120" />
      <feComposite
         in2="result91"
         operator="arithmetic"
         k1="1.5"
         result="result93"
         id="feComposite120" />
      <feComposite
         in2="result93"
         in="SourceGraphic"
         operator="out"
         result="result4"
         id="feComposite121" />
      <feComposite
         in2="result4"
         operator="arithmetic"
         k2="0.5"
         k1="1"
         id="feComposite122" />
      <feDisplacementMap
         scale="15"
         xChannelSelector="R"
         yChannelSelector="A"
         in2="result1"
         result="result92"
         id="feDisplacementMap122" />
    </filter>
    <filter
       inkscape:label="Pointillism"
       style="color-interpolation-filters:sRGB;"
       inkscape:menu-tooltip="Gives a turbulent pointillist HSL sensitive transparency"
       inkscape:menu="Scatter"
       height="1.0206135"
       width="1.0186638"
       y="-0.010306728"
       x="-0.0083022498"
       id="filter126">
      <feTurbulence
         seed="50"
         type="fractalNoise"
         baseFrequency="1"
         numOctaves="3"
         result="result1"
         id="feTurbulence122" />
      <feColorMatrix
         type="luminanceToAlpha"
         in="SourceGraphic"
         result="result0"
         id="feColorMatrix122" />
      <feColorMatrix
         result="result2"
         values="1 0 0 0 0 0 1 0 0 0 0 0 1 0 0 0 0 0 0.5 0 "
         id="feColorMatrix123" />
      <feComposite
         result="result3"
         operator="over"
         in="result1"
         in2="result2"
         id="feComposite123" />
      <feColorMatrix
         result="result91"
         values="1 0 0 0 0 0 1 0 0 0 0 0 1 0 0 0 0 0 5 -3.2"
         id="feColorMatrix124" />
      <feComposite
         in2="result91"
         operator="arithmetic"
         k1="1.5"
         result="result93"
         id="feComposite124" />
      <feComposite
         in2="result93"
         in="SourceGraphic"
         operator="out"
         result="result4"
         id="feComposite125" />
      <feComposite
         in2="result4"
         operator="arithmetic"
         k2="0.5"
         k1="1"
         id="feComposite126" />
      <feDisplacementMap
         scale="15"
         xChannelSelector="R"
         yChannelSelector="A"
         in2="result1"
         result="result92"
         id="feDisplacementMap126" />
    </filter>
  </defs>
  <g
     inkscape:label="Layer 1"
     inkscape:groupmode="layer"
     id="layer1"
     transform="translate(60.999996,54.000003)">
    <g
       id="g1"
       transform="translate(44.413807,26.591311)">
      <path
         d="m -48.036002,120.3001 q -4.992,0 -9.408,-1.728 -4.224,-1.92 -7.104,-5.376 -2.688,-3.648 -4.032,-8.256 -1.152,-4.608 -1.728,-9.216001 -0.384,-4.8 0,-9.792 0.384,-4.992 1.152,-9.792 l 3.84,-23.04 q 0.768,-4.416 1.92,-8.64 1.152,-4.224 3.072,-8.256 2.112,-4.032 4.992,-7.488 3.072,-3.648 6.72,-6.336 3.84,-2.688 8.064,-3.84 4.416,-1.152 8.64,-1.152 4.416,0 8.448,1.344 4.032,1.152 6.912,4.032 2.88,2.688 4.608,6.336 1.92,3.648 2.4960003,7.68 l 9.79199999,-59.136 H 22.043998 l -19.7759997,120.384 q -0.192,0.768 -0.192,1.536 0.192,0.768001 0.576,1.344001 0.576,0.576 1.152,0.768 0.768,0.192 1.536,0.192 h 3.264 v 18.432 h -6.336 q -4.032,0 -8.064,-0.768 -3.84,-0.768 -7.1040003,-2.88 -3.072,-2.112 -4.992,-5.568 -1.92,-3.456 -1.92,-7.488 -2.112,3.648 -5.376,6.912 -3.072,3.264 -6.912,5.568 -3.648,2.112 -7.872,3.072 -4.032,1.152 -8.064,1.152 z m 11.712,-18.432 q 3.456,0 6.912,-1.152 3.456,-1.344001 6.144,-3.840001 2.688,-2.688 4.032,-5.952 1.536,-3.456 2.112,-6.72 l 3.648,-23.04 q 0.576,-2.88 0.768,-5.76 0.384,-2.88 0,-5.568 -0.384,-2.688 -1.152,-5.184 -0.768,-2.688 -2.496,-4.608 -1.536,-2.112 -4.224,-3.072 -2.496,-1.152 -5.184,-1.152 -3.648,0 -7.104,1.728 -3.456,1.728 -5.952,4.8 -2.304,3.072 -3.456,6.72 -1.152,3.456 -1.728,6.912 l -3.84,23.04 q -0.384,2.688 -0.768,5.376 -0.192,2.496 0,4.992 0.384,2.496 1.152,4.8 0.768,2.304 2.304,4.224 1.728,1.728001 4.032,2.688001 2.304,0.768 4.8,0.768 z m 113.664,18.432 q -4.8,0 -9.216,-0.96 -4.416,-0.768 -8.064,-3.072 -3.648,-2.304 -6.336,-5.76 -2.496,-3.456 -3.84,-7.68 -1.152,-4.416001 -1.152,-9.024001 0,-4.608 0.768,-9.216 l 7.872,-47.232 h -21.504 v -18.432 h 46.272 l -11.328,68.736 q -0.384,2.304 -0.576,4.8 -0.192,2.304 0.576,4.416 0.768,2.112 2.304,3.648001 1.728,1.344 4.224,1.344 2.496,0 4.992,-1.152 2.688,-1.152001 4.416,-3.072001 1.92,-2.112 3.072,-4.608 1.152,-2.496 1.728,-4.992 l 18.624002,3.84 q -1.536,5.568 -4.416,10.944001 -2.688,5.184 -7.104002,9.408 -4.416,4.032 -10.176,6.144 -5.568,1.92 -11.136,1.92 z m -0.96,-114.8160009 q -3.648,0 -6.912,-1.344 -3.264,-1.344 -5.568,-4.03199998 -2.112,-2.68800002 -2.688,-6.33600002 -0.384,-3.648 0.192,-7.2960001 0.384,-2.688 1.728,-4.992 1.344,-2.304 3.456,-3.84 2.304,-1.728 4.8,-2.304 2.688,-0.576 5.184,-0.576 3.648,0 6.912,1.344 3.456,1.344 5.568,4.032 2.112,2.688 2.688,6.336 0.576,3.6480001 -0.192,7.2960001 -0.384,2.688 -1.728,4.992 -1.344,2.304 -3.648,4.032 -2.112,1.536 -4.8,2.112 -2.496,0.576 -4.992,0.576 z"
         id="text62-8-1"
         style="font-style:italic;font-weight:bold;font-size:192px;font-family:'IosevkaTerm Nerd Font Propo';-inkscape-font-specification:'IosevkaTerm Nerd Font Propo Bold Italic';text-align:center;text-anchor:middle;fill:none;stroke:#5d0091;stroke-width:3;stroke-linecap:round;filter:url(#filter126)"
         aria-label="di" />
      <path
         style="font-style:italic;font-weight:bold;font-size:192px;font-family:'IosevkaTerm Nerd Font Propo';-inkscape-font-specification:'IosevkaTerm Nerd Font Propo Bold Italic';text-align:center;text-anchor:middle;fill:none;stroke:#ff4300;stroke-width:3;stroke-linecap:round;filter:url(#filter122)"
         d="m -42.535605,120.036 q -4.992,0 -9.408,-1.728 -4.224,-1.92 -7.104,-5.376 -2.688,-3.648 -4.032,-8.256 -1.152,-4.608 -1.728,-9.216 -0.384,-4.8 0,-9.792 0.384,-4.992 1.152,-9.792 l 3.84,-23.04 q 0.768,-4.416 1.92,-8.64 1.152,-4.224 3.072,-8.256 2.112,-4.032 4.992,-7.488 3.072,-3.648 6.72,-6.336 3.84,-2.688 8.064,-3.84 4.416,-1.152 8.64,-1.152 4.416,0 8.448,1.344 4.032,1.152 6.912,4.032 2.88,2.688 4.608,6.336 1.92,3.648 2.496,7.68 l 9.792,-59.136 h 21.696 l -19.776,120.384 q -0.192,0.768 -0.192,1.536 0.192,0.768 0.576,1.344 0.576,0.576 1.152,0.768 0.768,0.192 1.536,0.192 h 3.264 v 18.432 h -6.336 q -4.032,0 -8.06399998,-0.768 -3.84000002,-0.768 -7.10400002,-2.88 -3.072,-2.112 -4.992,-5.568 -1.92,-3.456 -1.92,-7.488 -2.112,3.648 -5.376,6.912 -3.072,3.264 -6.912,5.568 -3.648,2.112 -7.872,3.072 -4.032,1.152 -8.064,1.152 z m 11.712,-18.432 q 3.456,0 6.912,-1.152 3.456,-1.344 6.144,-3.84 2.688,-2.688 4.032,-5.952 1.536,-3.456 2.112,-6.72 l 3.648,-23.04 q 0.576,-2.88 0.768,-5.76 0.384,-2.88 0,-5.568 -0.384,-2.688 -1.152,-5.184 -0.768,-2.688 -2.496,-4.608 -1.536,-2.112 -4.224,-3.072 -2.496,-1.152 -5.184,-1.152 -3.648,0 -7.104,1.728 -3.456,1.728 -5.952,4.8 -2.304,3.072 -3.456,6.72 -1.152,3.456 -1.728,6.912 l -3.84,23.04 q -0.384,2.688 -0.768,5.376 -0.192,2.496 0,4.992 0.384,2.496 1.152,4.8 0.768,2.304 2.304,4.224 1.728,1.728 4.032,2.688 2.304,0.768 4.8,0.768 z m 113.664,18.432 q -4.8,0 -9.216,-0.96 -4.416,-0.768 -8.064,-3.072 -3.648,-2.304 -6.336,-5.76 -2.496,-3.456 -3.84,-7.68 -1.152,-4.416 -1.152,-9.024 0,-4.608 0.768,-9.216 l 7.872,-47.232 h -21.504 V 18.66 h 46.272 l -11.328,68.736 q -0.384,2.304 -0.576,4.8 -0.192,2.304 0.576,4.416 0.768,2.112 2.304,3.648 1.728,1.344 4.224,1.344 2.496,0 4.992,-1.152 2.688,-1.152 4.416,-3.072 1.92,-2.112 3.072,-4.608 1.152,-2.496 1.728,-4.992 l 18.624005,3.84 q -1.536,5.568 -4.416,10.944 -2.688,5.184 -7.104,9.408 -4.416005,4.032 -10.176005,6.144 -5.568,1.92 -11.136,1.92 z m -0.96,-114.816 q -3.648,0 -6.912,-1.344 -3.264,-1.344 -5.568,-4.032 -2.112,-2.688 -2.688,-6.336 -0.384,-3.648 0.192,-7.296 0.384,-2.688 1.728,-4.992 1.344,-2.304 3.456,-3.84 2.304,-1.728 4.8,-2.304 2.688,-0.576 5.184,-0.576 3.648,0 6.912,1.344 3.456,1.344 5.568,4.032 2.112,2.688 2.688,6.336 0.576,3.648 -0.192,7.296 -0.384,2.688 -1.728,4.992 -1.344,2.304 -3.648,4.032 -2.112,1.536 -4.8,2.112 -2.496,0.576 -4.992,0.576 z"
         id="text62-8-2-0"
         aria-label="di" />
      <path
         style="font-style:italic;font-weight:bold;font-size:192px;font-family:'IosevkaTerm Nerd Font Propo';-inkscape-font-specification:'IosevkaTerm Nerd Font Propo Bold Italic';text-align:center;text-anchor:middle;fill:none;stroke:#faebd7;stroke-width:3;stroke-linecap:round;filter:url(#filter118)"
         d="m -45.244742,120.31737 q -4.992,0 -9.408,-1.728 -4.224,-1.92 -7.104,-5.376 -2.688,-3.648 -4.032,-8.256 -1.152,-4.608 -1.728,-9.215998 -0.384,-4.8 0,-9.792 0.384,-4.992 1.152,-9.792 l 3.84,-23.04 q 0.768,-4.416 1.92,-8.64 1.152,-4.224 3.072,-8.256 2.112,-4.032 4.992,-7.488 3.072,-3.648 6.72,-6.336 3.84,-2.688 8.064,-3.84 4.416,-1.152 8.64,-1.152 4.416,0 8.448,1.344 4.032,1.152 6.912,4.032 2.88,2.688 4.6080001,6.336 1.92,3.648 2.496,7.68 l 9.792,-59.136 H 24.835258 l -19.7759999,120.384 q -0.192,0.768 -0.192,1.536 0.192,0.767998 0.576,1.343998 0.576,0.576 1.152,0.768 0.768,0.192 1.536,0.192 h 3.2639999 v 18.432 H 5.0592581 q -4.032,0 -8.064,-0.768 -3.84,-0.768 -7.1040001,-2.88 -3.072,-2.112 -4.992,-5.568 -1.92,-3.456 -1.92,-7.488 -2.112,3.648 -5.376,6.912 -3.072,3.264 -6.912,5.568 -3.648,2.112 -7.872,3.072 -4.032,1.152 -8.064,1.152 z m 11.712,-18.432 q 3.456,0 6.912,-1.152 3.456,-1.343998 6.144,-3.839998 2.688,-2.688 4.032,-5.952 1.536,-3.456 2.112,-6.72 l 3.648,-23.04 q 0.576,-2.88 0.7680001,-5.76 0.384,-2.88 0,-5.568 -0.3840001,-2.688 -1.1520001,-5.184 -0.768,-2.688 -2.496,-4.608 -1.536,-2.112 -4.224,-3.072 -2.496,-1.152 -5.184,-1.152 -3.648,0 -7.104,1.728 -3.456,1.728 -5.952,4.8 -2.304,3.072 -3.456,6.72 -1.152,3.456 -1.728,6.912 l -3.84,23.04 q -0.384,2.688 -0.768,5.376 -0.192,2.496 0,4.992 0.384,2.496 1.152,4.8 0.768,2.304 2.304,4.224 1.728,1.727998 4.032,2.687998 2.304,0.768 4.8,0.768 z m 113.664,18.432 q -4.8,0 -9.216,-0.96 -4.416,-0.768 -8.064,-3.072 -3.648,-2.304 -6.336,-5.76 -2.496,-3.456 -3.84,-7.68 -1.152,-4.415998 -1.152,-9.023998 0,-4.608 0.768,-9.216 l 7.872,-47.232 h -21.504 v -18.432 h 46.272 l -11.328,68.736 q -0.384,2.304 -0.576,4.8 -0.192,2.304 0.576,4.416 0.768,2.112 2.304,3.647998 1.728,1.344 4.224,1.344 2.496,0 4.992,-1.152 2.688,-1.151998 4.416,-3.071998 1.92,-2.112 3.072,-4.608 1.152,-2.496 1.728,-4.992 l 18.624002,3.84 q -1.536,5.568 -4.416,10.943998 -2.688,5.184 -7.104,9.408 -4.416002,4.032 -10.176002,6.144 -5.568,1.92 -11.136,1.92 z m -0.96,-114.8159979 q -3.648,0 -6.912,-1.344 -3.264,-1.344 -5.568,-4.03200003 -2.112,-2.68799997 -2.688,-6.33599997 -0.384,-3.648 0.192,-7.2960001 0.384,-2.688 1.728,-4.992 1.344,-2.304 3.456,-3.84 2.304,-1.728 4.8,-2.304 2.688,-0.576 5.184,-0.576 3.648,0 6.912,1.344 3.456,1.344 5.568,4.032 2.112,2.688 2.688,6.336 0.576,3.6480001 -0.192,7.2960001 -0.384,2.688 -1.728,4.992 -1.344,2.304 -3.648,4.032 -2.112,1.536 -4.8,2.112 -2.496,0.576 -4.992,0.576 z"
         id="text62-5"
         aria-label="di" />
    </g>
  </g>
</svg>
